<?xml version="1.0" encoding="UTF-8"?>
<svg version="1.1" xmlns="http://www.w3.org/2000/svg" width="512" height="512">
<path d="M0 0 C1.17194412 -0.0021904 2.34388824 -0.0043808 3.55134583 -0.00663757 C7.41489166 -0.00894323 11.27766925 0.01729603 15.14111328 0.04418945 C17.84424722 0.05124879 20.54737685 0.05256367 23.2505188 0.05415344 C28.91792724 0.06059138 34.58511918 0.08178257 40.25244141 0.11328125 C47.47195311 0.15336041 54.69132307 0.17094722 61.91093254 0.18059063 C68.17323153 0.18897715 74.43550198 0.20619003 80.69777536 0.22562814 C82.68141812 0.23162238 84.66506328 0.23680558 86.64870834 0.2419796 C110.22314196 0.31603151 110.22314196 0.31603151 121.36035156 0.79736328 C122.38483808 0.82970707 122.38483808 0.82970707 123.43002129 0.86270428 C129.59181187 1.1935576 135.22093029 2.50880878 139.52392578 7.0324707 C143.58198897 13.36304928 142.43912239 19.92323014 141.00976562 27.03466797 C136.6529431 49.52481701 137.19966515 75.12636271 142.08642578 97.4699707 C143.1128191 102.36052345 144.10870558 107.25697765 145.08642578 112.1574707 C145.3040004 113.2456308 145.3040004 113.2456308 145.52597046 114.35577393 C158.48481689 179.76792402 167.35488788 247.05420317 173.08642578 313.4699707 C173.18665039 314.58001465 173.286875 315.69005859 173.39013672 316.83374023 C173.90507203 322.67486589 174.29216691 328.48067025 174.33642578 334.3449707 C174.36736328 335.40458008 174.36736328 335.40458008 174.39892578 336.4855957 C174.43438163 341.25440676 173.6003122 344.42640812 171.08642578 348.4699707 C162.14353824 357.41285824 149.48251599 356.58933321 137.60571289 356.60888672 C136.32059814 356.60429443 135.0354834 356.59970215 133.71142578 356.5949707 C133.04289581 356.59375214 132.37436584 356.59253357 131.68557739 356.59127808 C118.43400947 356.56322973 105.20097238 356.20621934 91.96289062 355.59790039 C89.47944402 355.48745004 86.99681288 355.39979744 84.51220703 355.3215332 C78.03405626 355.03239151 72.34724473 354.57092406 67.08642578 350.4699707 C64.68949437 347.69851876 64.1632829 345.95032772 63.58642578 342.3449707 C64.04712674 338.77453826 64.65750194 337.04038168 66.21142578 333.9074707 C73.08738027 319.68807474 75.76768678 303.24552788 78.64306641 287.81567383 C79.42221546 283.69339182 80.25808469 279.58261155 81.08642578 275.4699707 C74.81642578 275.7999707 68.54642578 276.1299707 62.08642578 276.4699707 C61.7700415 277.83275146 61.45365723 279.19553223 61.12768555 280.59960938 C45.13753379 349.26819516 45.13753379 349.26819516 34.08642578 371.4699707 C33.78414062 372.08936523 33.48185547 372.70875977 33.17041016 373.34692383 C26.37085221 387.18536163 17.76297723 399.33322307 7.08642578 410.4699707 C6.31814453 411.30141602 5.54986328 412.13286133 4.75830078 412.98950195 C-1.46573928 419.52474402 -8.31139301 424.67495147 -15.91357422 429.4699707 C-16.98220703 430.14930664 -18.05083984 430.82864258 -19.15185547 431.52856445 C-50.29606547 450.30292371 -86.50506149 454.7181123 -122.22607422 454.6574707 C-122.94358856 454.65653412 -123.66110291 454.65559753 -124.40036011 454.65463257 C-157.76088702 454.56046063 -157.76088702 454.56046063 -164.91357422 447.4699707 C-168.31465864 443.75003462 -168.2959594 440.17526638 -168.24365234 435.34863281 C-167.62801982 429.97960684 -165.29657995 425.26456704 -163.16357422 420.3449707 C-158.04803616 407.82712675 -155.55885212 395.83531464 -153.91357422 382.4699707 C-153.54276964 379.56814765 -153.16625494 376.66742217 -152.77661133 373.76806641 C-152.54410116 372.01603117 -152.32609378 370.26197274 -152.12670898 368.50585938 C-151.23894282 361.5428629 -149.48193985 354.91603321 -144.28857422 349.9699707 C-139.77407786 347.11870985 -136.20051984 346.83266486 -130.91357422 347.4699707 C-128.01001778 349.01063331 -125.71234117 350.80885974 -123.19091797 352.89575195 C-115.923665 358.67075586 -107.30284095 362.95782888 -97.91357422 363.4699707 C-97.12982422 363.52024414 -96.34607422 363.57051758 -95.53857422 363.62231445 C-79.13879721 364.21823658 -60.9490087 358.21881102 -48.47607422 347.3449707 C-6.43602289 300.17808385 -4.91896547 205.88720182 -1.05514526 145.66064453 C-0.9611212 144.20571382 -0.86440081 142.75095473 -0.7649231 141.29638672 C0.09667289 128.63808641 0.20707019 116.0292294 0.14892578 103.3449707 C0.14389287 101.40356563 0.13933318 99.46215927 0.13525391 97.52075195 C0.12440828 92.83712549 0.10724602 88.15356301 0.08642578 83.4699707 C-3.57595475 81.49501135 -6.63587137 81.03256735 -10.78857422 80.5949707 C-20.03857422 79.3449707 -20.03857422 79.3449707 -23.91357422 75.4699707 C-25.93181441 71.78448862 -25.96322136 69.0219612 -25.4597168 64.97680664 C-24.84219929 59.30314317 -24.76150824 53.68838622 -24.73779297 47.9855957 C-24.71462054 45.81240866 -24.69050432 43.63923151 -24.66552734 41.46606445 C-24.63030295 38.08008898 -24.60097392 34.69448695 -24.58764648 31.30834961 C-24.57218012 28.01282382 -24.53201869 24.7183446 -24.48779297 21.4230957 C-24.48970139 20.41361877 -24.4916098 19.40414185 -24.49357605 18.36407471 C-24.39380987 12.62716904 -24.06881567 8.79606574 -19.91357422 4.4699707 C-13.61399837 0.02520535 -7.49381445 -0.08782016 0 0 Z M74.08642578 164.4699707 C73.65628178 170.05650401 73.22912397 175.64325477 72.8046875 181.23022461 C72.65999339 183.12937532 72.51449475 185.02846492 72.36816406 186.92749023 C72.15753162 189.66284628 71.94982822 192.39841168 71.74267578 195.1340332 C71.67705444 195.97801666 71.61143311 196.82200012 71.54382324 197.69155884 C71.22325984 201.96331884 71.01364731 206.1821055 71.08642578 210.4699707 C74.71642578 210.4699707 78.34642578 210.4699707 82.08642578 210.4699707 C81.56405699 201.15309448 80.30399429 192.13687918 78.58642578 182.9699707 C78.24804688 181.11758789 78.24804688 181.11758789 77.90283203 179.2277832 C76.99976033 174.30096601 76.07922317 169.37955777 75.08642578 164.4699707 C74.75642578 164.4699707 74.42642578 164.4699707 74.08642578 164.4699707 Z " fill="#0079FE" transform="translate(252.91357421875,28.530029296875)"/>
<path d="M0 0 C1.17194412 -0.0021904 2.34388824 -0.0043808 3.55134583 -0.00663757 C7.41489166 -0.00894323 11.27766925 0.01729603 15.14111328 0.04418945 C17.84424722 0.05124879 20.54737685 0.05256367 23.2505188 0.05415344 C28.91792724 0.06059138 34.58511918 0.08178257 40.25244141 0.11328125 C47.47195311 0.15336041 54.69132307 0.17094722 61.91093254 0.18059063 C68.17323153 0.18897715 74.43550198 0.20619003 80.69777536 0.22562814 C82.68141812 0.23162238 84.66506328 0.23680558 86.64870834 0.2419796 C110.22314196 0.31603151 110.22314196 0.31603151 121.36035156 0.79736328 C122.38483808 0.82970707 122.38483808 0.82970707 123.43002129 0.86270428 C129.59181187 1.1935576 135.22093029 2.50880878 139.52392578 7.0324707 C143.58198897 13.36304928 142.43912239 19.92323014 141.00976562 27.03466797 C136.6529431 49.52481701 137.19966515 75.12636271 142.08642578 97.4699707 C143.1128191 102.36052345 144.10870558 107.25697765 145.08642578 112.1574707 C145.3040004 113.2456308 145.3040004 113.2456308 145.52597046 114.35577393 C158.48481689 179.76792402 167.35488788 247.05420317 173.08642578 313.4699707 C173.18665039 314.58001465 173.286875 315.69005859 173.39013672 316.83374023 C173.90507203 322.67486589 174.29216691 328.48067025 174.33642578 334.3449707 C174.36736328 335.40458008 174.36736328 335.40458008 174.39892578 336.4855957 C174.43438163 341.25440676 173.6003122 344.42640812 171.08642578 348.4699707 C162.14353824 357.41285824 149.48251599 356.58933321 137.60571289 356.60888672 C136.32059814 356.60429443 135.0354834 356.59970215 133.71142578 356.5949707 C133.04289581 356.59375214 132.37436584 356.59253357 131.68557739 356.59127808 C118.43400947 356.56322973 105.20097238 356.20621934 91.96289062 355.59790039 C89.47944402 355.48745004 86.99681288 355.39979744 84.51220703 355.3215332 C78.03405626 355.03239151 72.34724473 354.57092406 67.08642578 350.4699707 C64.68949437 347.69851876 64.1632829 345.95032772 63.58642578 342.3449707 C64.04712674 338.77453826 64.65750194 337.04038168 66.21142578 333.9074707 C73.08738027 319.68807474 75.76768678 303.24552788 78.64306641 287.81567383 C79.42221546 283.69339182 80.25808469 279.58261155 81.08642578 275.4699707 C74.81642578 275.7999707 68.54642578 276.1299707 62.08642578 276.4699707 C61.7700415 277.83275146 61.45365723 279.19553223 61.12768555 280.59960938 C45.13753379 349.26819516 45.13753379 349.26819516 34.08642578 371.4699707 C33.78414062 372.08936523 33.48185547 372.70875977 33.17041016 373.34692383 C26.37085221 387.18536163 17.76297723 399.33322307 7.08642578 410.4699707 C6.31814453 411.30141602 5.54986328 412.13286133 4.75830078 412.98950195 C-1.46573928 419.52474402 -8.31139301 424.67495147 -15.91357422 429.4699707 C-16.98220703 430.14930664 -18.05083984 430.82864258 -19.15185547 431.52856445 C-50.29606547 450.30292371 -86.50506149 454.7181123 -122.22607422 454.6574707 C-122.94358856 454.65653412 -123.66110291 454.65559753 -124.40036011 454.65463257 C-157.76088702 454.56046063 -157.76088702 454.56046063 -164.91357422 447.4699707 C-168.31465864 443.75003462 -168.2959594 440.17526638 -168.24365234 435.34863281 C-167.62801982 429.97960684 -165.29657995 425.26456704 -163.16357422 420.3449707 C-158.04803616 407.82712675 -155.55885212 395.83531464 -153.91357422 382.4699707 C-153.54276964 379.56814765 -153.16625494 376.66742217 -152.77661133 373.76806641 C-152.54410116 372.01603117 -152.32609378 370.26197274 -152.12670898 368.50585938 C-151.23894282 361.5428629 -149.48193985 354.91603321 -144.28857422 349.9699707 C-139.77407786 347.11870985 -136.20051984 346.83266486 -130.91357422 347.4699707 C-128.01001778 349.01063331 -125.71234117 350.80885974 -123.19091797 352.89575195 C-115.923665 358.67075586 -107.30284095 362.95782888 -97.91357422 363.4699707 C-97.12982422 363.52024414 -96.34607422 363.57051758 -95.53857422 363.62231445 C-79.13879721 364.21823658 -60.9490087 358.21881102 -48.47607422 347.3449707 C-6.43602289 300.17808385 -4.91896547 205.88720182 -1.05514526 145.66064453 C-0.9611212 144.20571382 -0.86440081 142.75095473 -0.7649231 141.29638672 C0.09667289 128.63808641 0.20707019 116.0292294 0.14892578 103.3449707 C0.14389287 101.40356563 0.13933318 99.46215927 0.13525391 97.52075195 C0.12440828 92.83712549 0.10724602 88.15356301 0.08642578 83.4699707 C-3.57595475 81.49501135 -6.63587137 81.03256735 -10.78857422 80.5949707 C-20.03857422 79.3449707 -20.03857422 79.3449707 -23.91357422 75.4699707 C-25.93181441 71.78448862 -25.96322136 69.0219612 -25.4597168 64.97680664 C-24.84219929 59.30314317 -24.76150824 53.68838622 -24.73779297 47.9855957 C-24.71462054 45.81240866 -24.69050432 43.63923151 -24.66552734 41.46606445 C-24.63030295 38.08008898 -24.60097392 34.69448695 -24.58764648 31.30834961 C-24.57218012 28.01282382 -24.53201869 24.7183446 -24.48779297 21.4230957 C-24.48970139 20.41361877 -24.4916098 19.40414185 -24.49357605 18.36407471 C-24.39380987 12.62716904 -24.06881567 8.79606574 -19.91357422 4.4699707 C-13.61399837 0.02520535 -7.49381445 -0.08782016 0 0 Z M-13.91357422 13.4699707 C-14.24516707 15.93617234 -14.24516707 15.93617234 -14.23242188 18.83764648 C-14.25229156 19.95865753 -14.27216125 21.07966858 -14.29263306 22.23464966 C-14.30418427 23.44925873 -14.31573547 24.6638678 -14.32763672 25.9152832 C-14.34700287 27.15543182 -14.36636902 28.39558044 -14.38632202 29.67330933 C-14.43606232 32.9710885 -14.47729898 36.26883209 -14.51446533 39.56677246 C-14.55446424 42.93174405 -14.60557525 46.29654462 -14.65576172 49.66137695 C-14.75197209 56.26413177 -14.83697804 62.86696081 -14.91357422 69.4699707 C-14.03459473 69.59331787 -13.15561523 69.71666504 -12.25 69.84375 C-11.08968262 70.01302002 -9.92936523 70.18229004 -8.73388672 70.35668945 C-7.58678223 70.52128662 -6.43967773 70.68588379 -5.2578125 70.85546875 C0.02071849 71.82539593 5.15946549 73.14448201 8.67651367 77.38891602 C10.75215926 81.92478568 10.49490154 86.12814481 10.44970703 91.05981445 C10.45174637 92.62551933 10.45174637 92.62551933 10.4538269 94.22285461 C10.45234984 97.61801053 10.42712738 101.01243879 10.39892578 104.4074707 C10.39365875 105.56444458 10.38839172 106.72141846 10.38296509 107.91345215 C10.30130574 125.84615589 9.76134137 143.6092342 8.08642578 161.4699707 C7.97395508 162.72003906 7.86148438 163.97010742 7.74560547 165.25805664 C7.03848321 173.08315336 6.27348994 180.90092641 5.46875 188.71655273 C5.09964532 192.34018962 4.74937303 195.96520948 4.40283203 199.59106445 C1.20175375 232.2755173 -4.52047934 265.23147307 -13.10107422 296.9699707 C-13.32657959 297.80463867 -13.55208496 298.63930664 -13.78442383 299.49926758 C-15.4332264 305.33026715 -17.59330761 310.87699432 -19.91357422 316.4699707 C-20.53399543 318.01659331 -21.15380027 319.56346334 -21.77294922 321.1105957 C-30.67092331 342.95744523 -39.69810884 358.05891865 -62.04418945 367.75268555 C-72.70403983 372.17479349 -82.67023773 373.70682041 -94.16357422 373.8449707 C-95.07461914 373.85915039 -95.98566406 373.87333008 -96.92431641 373.88793945 C-109.53988746 373.7964228 -121.09116055 369.13955187 -130.35107422 360.5324707 C-130.94791016 359.92532227 -131.54474609 359.31817383 -132.15966797 358.69262695 C-133.83549629 357.27668111 -133.83549629 357.27668111 -135.94873047 357.46606445 C-138.87797166 358.96271453 -139.56736961 360.46449064 -140.91357422 363.4699707 C-141.62456414 366.44537392 -142.0244638 369.43767413 -142.41357422 372.4699707 C-142.53756592 373.34572754 -142.66155762 374.22148437 -142.78930664 375.1237793 C-143.43061093 379.68389492 -144.01074731 384.24928488 -144.55810547 388.8215332 C-146.46251503 404.1831081 -150.57018135 417.91031266 -157.03076172 431.98950195 C-157.99300342 434.69314567 -158.23259172 436.6229812 -157.91357422 439.4699707 C-153.12536464 444.25818028 -143.58225458 443.7027462 -137.11456299 443.77308655 C-135.77177277 443.77193092 -135.77177277 443.77193092 -134.40185547 443.77075195 C-133.43842224 443.776306 -132.47498901 443.78186005 -131.48236084 443.7875824 C-128.39677354 443.79927752 -125.31166058 443.79314778 -122.22607422 443.7824707 C-121.17410858 443.78098022 -120.12214294 443.77948975 -119.03829956 443.7779541 C-103.82368606 443.73905801 -88.88505959 443.45526044 -73.91357422 440.4699707 C-72.82737793 440.26114258 -72.82737793 440.26114258 -71.71923828 440.0480957 C-38.20540358 433.34843046 -6.64788872 415.83128671 12.68798828 387.16918945 C26.54606218 366.01357221 34.95758623 342.90337349 41.08642578 318.4699707 C41.38677734 317.2864502 41.68712891 316.10292969 41.99658203 314.88354492 C45.8790093 299.50206659 49.33719151 284.09450088 52.08642578 268.4699707 C58.56367019 266.23360794 64.29702523 264.99527343 71.14892578 265.1574707 C71.92679443 265.16657471 72.70466309 265.17567871 73.50610352 265.18505859 C87.09623951 265.47978443 87.09623951 265.47978443 90.08642578 268.4699707 C91.46389244 286.85385263 86.85836239 304.87011493 82.08642578 322.4699707 C81.80669922 323.51411133 81.52697266 324.55825195 81.23876953 325.6340332 C79.85291321 330.52618175 78.04461547 335.06702604 75.85595703 339.6574707 C74.9561576 341.44861279 74.9561576 341.44861279 75.08642578 343.4699707 C78.84441741 344.6401416 82.49255473 344.67749459 86.41064453 344.78637695 C87.50039078 344.81775253 87.50039078 344.81775253 88.6121521 344.84976196 C90.999299 344.91625305 93.38654249 344.97512889 95.77392578 345.0324707 C96.5907785 345.05298492 97.40763123 345.07349915 98.24923706 345.09463501 C109.51402551 345.37391821 120.78044283 345.59141232 132.04873657 345.64620972 C133.42845779 345.65360763 134.80816631 345.6641903 136.18783569 345.67825317 C144.55331704 345.75631025 152.95866089 345.68757702 161.08642578 343.4699707 C163.41752078 341.57400458 163.41752078 341.57400458 163.31689453 338.37231445 C163.30271484 337.06391602 163.28853516 335.75551758 163.27392578 334.4074707 C163.26748047 333.13774414 163.26103516 331.86801758 163.25439453 330.55981445 C163.20607492 328.86296411 163.14894247 327.16635732 163.08642578 325.4699707 C163.048479 324.39448975 163.01053223 323.31900879 162.97143555 322.2109375 C162.2972187 307.90939546 160.53245018 293.70987552 158.8894043 279.4944458 C158.48964187 276.02513698 158.09609276 272.5551231 157.70166016 269.08520508 C156.96543858 262.61856738 156.21775701 256.15331718 155.46221924 249.68890381 C155.23481788 247.74105258 155.00866328 245.79305449 154.78485107 243.8447876 C153.87209349 235.90914569 152.69618959 228.06132574 151.25753784 220.20573425 C149.73119218 211.74221858 148.64428866 203.22130617 147.52432251 194.69631958 C145.72605566 181.03747346 143.89828803 167.40468372 141.40600586 153.85205078 C140.52709287 149.06645367 139.77315407 144.2935905 139.15112305 139.46801758 C138.12086822 131.49453261 136.75730658 123.62840726 135.15673828 115.7512207 C134.89050659 114.44011574 134.89050659 114.44011574 134.61889648 113.1025238 C133.71737772 108.68385994 132.8007806 104.2688245 131.86669922 99.85693359 C129.88678182 90.38347584 128.39963793 81.17417352 128.08642578 71.4699707 C128.05355469 70.54498779 128.02068359 69.62000488 127.98681641 68.66699219 C127.91976517 66.07905408 127.89647151 63.49623219 127.89892578 60.9074707 C127.90013428 59.52253418 127.90013428 59.52253418 127.90136719 58.10961914 C128.00968995 45.59090565 128.86878665 33.00004852 131.78613281 20.80297852 C132.14378676 18.02432717 132.00182788 16.12335846 131.08642578 13.4699707 C127.87101684 11.32193098 125.14723368 11.21882003 121.34188843 11.21600342 C120.16971268 11.21036377 118.99753693 11.20472412 117.7898407 11.19891357 C115.86649651 11.20498627 115.86649651 11.20498627 113.90429688 11.21118164 C112.53750929 11.20847101 111.17072317 11.20490967 109.80393982 11.20056152 C106.09544653 11.19144551 102.38706455 11.19497805 98.67856932 11.20131969 C94.79975808 11.20638171 90.92095639 11.20168787 87.04214478 11.19854736 C80.5305205 11.19490918 74.0189416 11.19970386 67.50732422 11.20922852 C59.97279779 11.22012193 52.43837951 11.21658049 44.90385568 11.2055757 C38.43839508 11.19650951 31.9729671 11.19521399 25.5075022 11.20045304 C21.64426946 11.20357526 17.78108762 11.20397503 13.91785812 11.19738007 C10.28827644 11.1916166 6.65883477 11.19558499 3.02926826 11.20716858 C1.05683206 11.21108811 -0.91561594 11.20512165 -2.88804626 11.19891357 C-4.05458237 11.20455322 -5.22111847 11.21019287 -6.42300415 11.21600342 C-7.44099909 11.21675747 -8.45899403 11.21751152 -9.5078373 11.21828842 C-12.09735388 11.23395407 -12.09735388 11.23395407 -13.91357422 13.4699707 Z " fill="#00319C" transform="translate(252.91357421875,28.530029296875)"/>
<path d="M0 0 C2.41240013 2.41240013 2.8997992 4.23750813 3.953125 7.4765625 C4.32219971 8.6106958 4.69127441 9.7448291 5.0715332 10.91333008 C5.46042725 12.13818115 5.84932129 13.36303223 6.25 14.625 C6.65114014 15.88014404 7.05228027 17.13528809 7.46557617 18.4284668 C10.91493576 29.33716033 13.74337203 40.36269635 16.38867188 51.49072266 C17.20701297 54.84971218 18.13128404 58.17053342 19.0625 61.5 C23.01680615 76.23430258 25.8201194 91.27017036 28.3125 106.3125 C28.48394531 107.31909668 28.65539062 108.32569336 28.83203125 109.36279297 C31.67902129 127.20689614 31.67902129 127.20689614 28 133 C25.23382437 134.38308781 22.98982 134.11210196 19.8984375 134.09765625 C18.68671875 134.09443359 17.475 134.09121094 16.2265625 134.08789062 C14.95554687 134.07951172 13.68453125 134.07113281 12.375 134.0625 C11.09625 134.05798828 9.8175 134.05347656 8.5 134.04882812 C5.33328708 134.03701203 2.16666644 134.02053815 -1 134 C-3.041631 129.83246622 -3.11790034 126.81889268 -2.72265625 122.2265625 C-2.66964859 121.57193024 -2.61664093 120.91729797 -2.56202698 120.24282837 C-2.38909946 118.16031849 -2.19760519 116.08030459 -2 114 C-1.81606689 112.05625488 -1.81606689 112.05625488 -1.62841797 110.07324219 C-1.50102861 108.74413564 -1.37358625 107.41503416 -1.24609375 106.0859375 C0.59029083 86.89480397 1.28386014 67.84304356 1.25 48.5625 C1.24904327 47.45904236 1.24808655 46.35558472 1.24710083 45.21868896 C1.21660522 30.12462834 0.77618701 15.07375124 0 0 Z M11 78 C10.569856 83.5865333 10.14269819 89.17328407 9.71826172 94.76025391 C9.5735676 96.65940462 9.42806897 98.55849422 9.28173828 100.45751953 C9.07110584 103.19287557 8.86340244 105.92844098 8.65625 108.6640625 C8.59062866 109.50804596 8.52500732 110.35202942 8.45739746 111.22158813 C8.13683406 115.49334814 7.92722152 119.71213479 8 124 C11.63 124 15.26 124 19 124 C18.47763121 114.68312377 17.2175685 105.66690848 15.5 96.5 C15.16162109 94.64761719 15.16162109 94.64761719 14.81640625 92.7578125 C13.91333455 87.83099531 12.99279738 82.90958706 12 78 C11.67 78 11.34 78 11 78 Z " fill="#0031A0" transform="translate(316,115)"/>
</svg>
